<?xml version="1.0" encoding="utf-8" ?>
<svg xmlns="http://www.w3.org/2000/svg" xmlns:xlink="http://www.w3.org/1999/xlink" width="1024" height="1024">
	<path fill="white" d="M0 0L1024 0L1024 1024L0 1024L0 0Z"/>
	<path d="M555.284 156.882C562.232 158.204 568.801 160.365 575.477 162.642Q575.578 170.052 575.548 177.462C569.314 174.662 563.4 172.625 556.696 171.19C556.385 166.384 556.043 161.644 555.284 156.882Z"/>
	<path d="M933.863 296.896L934.325 297.348C933.943 298.352 934.134 298.014 933.661 298.767C931.673 301.926 930.908 305.254 931.123 308.994C931.737 319.721 940.391 328.53 945.088 337.695C959.862 366.522 933.335 371.56 931.236 389.653C930.534 395.706 932.54 400.421 936.095 405.11C932.942 404.264 930.247 402.196 928.278 399.595C926.505 397.254 925.804 394.232 925.64 391.348C924.819 376.952 937.877 367.853 939.475 354.146C941.454 337.172 922.851 324.619 925.859 308.301C926.814 303.117 929.707 299.826 933.863 296.896Z"/>
	<path d="M132.286 297.449L133.079 297.658C130.998 300.363 129.046 303.798 128.397 307.19C126.396 317.648 133.873 325.389 139.521 332.934C147.557 343.669 148.967 356.826 140.866 368.09C136.116 374.694 128.642 378.951 127.583 387.763C126.887 393.551 129.058 399.158 132.558 403.676L132.332 404.04L131.294 404.041Q130.131 403.244 129.084 402.3Q128.037 401.356 127.123 400.282Q126.21 399.209 125.446 398.024Q124.682 396.839 124.082 395.563C123.233 393.792 122.78 391.451 122.455 389.504C120.356 376.916 131.353 371.11 134.512 360.198C138.14 347.667 131.855 336.874 126.229 326.243C123.122 320.371 121.379 313.516 123.522 307.006C125.02 302.456 128.169 299.624 132.286 297.449Z"/>
	<path d="M98.9304 296.998C99.4081 297.863 99.4603 297.469 98.9241 298.176C94.6543 303.81 93.7364 309.77 96.4362 316.492C100.371 326.288 110.198 332.045 113.55 342.427C121.764 367.868 93.5248 373.418 94.0703 391.552C94.2417 397.249 97.1965 401.477 101.12 405.303C99.6568 404.811 98.1153 404.329 96.7541 403.588Q96.0978 403.227 95.4798 402.804Q94.8617 402.381 94.2878 401.9Q93.7139 401.419 93.1896 400.884Q92.6652 400.35 92.1955 399.766Q91.7257 399.183 91.3151 398.557Q90.9044 397.931 90.5566 397.267Q90.2089 396.604 89.9274 395.91Q89.646 395.216 89.4334 394.498C87.3777 387.489 90.5428 381.435 93.7045 375.398C87.5203 373.568 83.1035 370.294 79.0958 365.294C78.2712 363.995 77.4055 362.684 76.6919 361.32C73.9416 356.065 73.4799 350.166 75.3369 344.542C77.7259 337.307 82.4445 332.686 89.0609 329.32C87.1389 331.509 85.3394 333.703 83.8783 336.234C79.9379 343.058 78.2872 350.723 80.4671 358.466C82.6309 366.152 87.1697 371.093 93.9557 374.933C97.365 370.971 100.584 366.839 102.414 361.884C105.683 353.034 103.877 342.925 99.322 334.865C97.1638 331.046 94.4029 327.437 92.5696 323.45C90.0243 317.916 89.0545 309.828 91.3964 304.008C92.8889 300.298 95.4017 298.571 98.9304 296.998Z"/>
	<path d="M900.9 296.972C900.926 296.997 900.962 297.015 900.978 297.048C901.104 297.301 901.346 297.541 901.321 297.822C901.294 298.132 897.81 303.122 897.373 304.544C893.146 318.275 909.875 328.199 915.651 338.755C918.386 343.753 919.504 349.304 918.618 354.952C915.846 372.6 898.988 377.126 895.298 390.468C894.089 394.839 894.989 399.798 897.203 403.692C897.303 403.868 897.407 404.041 897.509 404.216L897.068 404.626C896.21 404.292 895.497 403.962 894.746 403.418C891.837 401.307 889.941 398.542 889.44 394.945C888.412 387.571 892.2 381.635 896.511 376.121C888.625 372.748 882.372 368.665 877.821 361.244C876.07 357.616 875.004 353.775 875.237 349.715C875.793 340.03 882.885 333.138 889.768 327.244C884.346 336.468 877.278 344.667 879.946 356.247C882.092 365.557 889.909 370.704 897.507 375.329C901.249 370.911 904.803 366.648 906.37 360.925C908.732 352.299 906.444 342.398 901.927 334.858C899.48 330.775 896.42 327.054 894.075 322.909C891.395 318.172 889.786 311.991 891.445 306.641C892.906 301.931 896.71 299.118 900.9 296.972Z"/>
	<path d="M614.559 705.641C620.022 705.306 624.206 706.125 629.398 707.747C614.358 725.154 597.271 740.99 581.28 757.54C571.666 767.49 562.879 778.097 553.67 788.4C549.531 793.032 547.176 794.427 541.006 794.744C538.359 797.401 535.906 800.317 533.392 803.104L532.419 803.711C528.593 802.857 523.127 796.98 520.064 794.331C523.01 790.529 530.533 784.856 531.037 780.294C531.211 778.718 531.448 776.797 532.376 775.464C536.138 770.057 545.688 763.321 550.847 758.3C567.095 742.49 592.176 709.863 614.559 705.641Z"/>
	<path fill="white" d="M616.062 710.069C617.442 709.976 618.458 709.663 619.705 710.322C619.68 710.462 619.673 710.607 619.628 710.742C618.845 713.116 586.255 745.089 581.352 750.214C569.935 762.146 559.453 774.645 548.454 786.917C547.839 787.603 547.106 788.354 546.232 788.704C544.845 789.259 544.306 788.605 543.167 787.903C540.465 785.313 538.14 782.557 536.034 779.467C542.298 771.996 550.472 765.865 557.355 758.912C573.98 742.119 592.171 716.111 616.062 710.069Z"/>
	<path d="M491.201 809.412C493.33 810.061 496.856 815.369 498.388 817.228C492.84 825.258 485.226 832.561 478.771 839.921Q467.162 853.339 455.211 866.454C451.926 870.027 448.6 874.284 444.734 877.223C441.842 876.478 438.862 875.851 435.892 876.559C433.224 877.196 431.117 878.952 429.747 881.301C428.209 883.939 427.56 887.156 428.361 890.138C429.037 892.651 430.678 895.09 433.013 896.328C435.303 897.542 437.821 897.391 440.193 896.498C443.513 895.246 446.244 892.946 447.696 889.673C449.161 886.37 448.626 883.494 447.383 880.22L447.142 879.601C465.718 860.499 482.159 839.273 500.872 820.278C503.871 823.806 506.611 827.58 509.424 831.256L507.049 834.329C496.313 848.526 484.532 862.018 473.316 875.842C466.281 884.513 455.974 899.06 448.036 905.817C444.657 908.693 440.519 910.743 436.089 911.283C430.711 911.939 425.8 910.061 421.679 906.654C417.025 902.807 414.853 897.649 414.513 891.713C414.198 886.209 415.907 880.906 418.867 876.316C423.777 868.703 431.143 862.714 437.84 856.728C449.824 846.015 462.167 835.71 474.232 825.085C479.757 820.219 485.843 815.393 490.747 809.925L491.201 809.412Z"/>
	<path d="M245.901 725.217C250.968 729.55 255.183 735.639 259.798 740.525C266.36 747.474 273.659 753.991 280.795 760.341Q287.435 766.199 294.348 771.732Q301.26 777.266 308.429 782.464Q315.598 787.661 323.007 792.511Q330.415 797.36 338.047 801.85Q345.679 806.341 353.516 810.462Q361.354 814.582 369.379 818.324Q377.404 822.066 385.599 825.421Q393.794 828.776 402.139 831.735C415.43 836.371 429.002 839.882 442.634 843.337C440.492 845.216 430.913 854.647 428.946 855.348C428.415 855.537 427.82 855.381 427.257 855.397C415.933 852.823 404.68 848.836 393.752 844.948Q388.644 843.103 383.59 841.114Q378.536 839.125 373.54 836.993Q368.545 834.862 363.612 832.589Q358.679 830.316 353.812 827.905Q348.946 825.493 344.15 822.945Q339.354 820.396 334.632 817.712Q329.91 815.028 325.266 812.212Q320.622 809.395 316.06 806.448Q311.498 803.501 307.021 800.425Q302.545 797.35 298.157 794.148Q293.769 790.947 289.475 787.623Q285.18 784.298 280.981 780.853Q276.782 777.408 272.682 773.846Q268.583 770.283 264.586 766.605Q260.589 762.927 256.699 759.138Q252.808 755.348 249.026 751.45C241.909 744.062 235.391 736.156 228.817 728.29C234.497 727.205 240.175 726.025 245.901 725.217Z"/>
	<path d="M777.452 722.922C782.9 724.275 788.497 725.277 793.992 726.45C744.043 791.72 676.074 834.622 597.112 856.013L595.006 856.416C592.149 855.845 583.906 846.399 581.335 843.891C646.482 827.975 704.169 799.212 751.895 751.441C760.788 742.539 770.064 733.124 777.452 722.922Z"/>
	<path d="M379.018 184.101L379.223 184.374C378.749 189.556 375.912 196.939 374.703 202.365C351.04 212.253 328.746 226.495 308.205 241.718Q304.743 244.299 301.346 246.965Q297.949 249.631 294.619 252.38Q291.289 255.129 288.028 257.959Q284.767 260.789 281.576 263.699Q278.386 266.608 275.268 269.596Q272.15 272.584 269.107 275.647Q266.064 278.711 263.097 281.849Q260.131 284.986 257.243 288.196Q254.354 291.406 251.546 294.686Q248.738 297.967 246.011 301.315Q243.285 304.664 240.642 308.078Q237.999 311.493 235.441 314.972Q232.883 318.451 230.412 321.992Q227.941 325.533 225.557 329.134Q223.174 332.735 220.88 336.393Q218.587 340.052 216.384 343.766Q214.181 347.48 212.071 351.247Q209.96 355.014 207.944 358.832Q205.927 362.651 204.005 366.517Q202.083 370.384 200.257 374.297Q198.431 378.21 196.702 382.167Q194.973 386.124 193.342 390.122Q191.711 394.12 190.179 398.158Q188.648 402.195 187.216 406.269Q185.784 410.343 184.454 414.451Q183.123 418.558 181.894 422.698Q180.665 426.838 179.539 431.006Q178.412 435.175 177.389 439.37Q176.366 443.565 175.446 447.784Q174.527 452.003 173.712 456.243Q172.896 460.484 172.186 464.743Q171.476 469.003 170.871 473.278L156.585 475.764L156.04 474.783C158.851 447.158 167.592 416.084 177.533 390.195Q178.823 386.915 180.176 383.661Q181.528 380.406 182.942 377.178Q184.356 373.949 185.832 370.749Q187.307 367.548 188.843 364.376Q190.379 361.204 191.976 358.061Q193.572 354.919 195.228 351.808Q196.883 348.696 198.598 345.617Q200.313 342.538 202.086 339.492Q203.859 336.446 205.69 333.434Q207.521 330.423 209.408 327.446Q211.296 324.47 213.24 321.53Q215.184 318.591 217.184 315.688Q219.184 312.786 221.239 309.923Q223.293 307.059 225.402 304.235Q227.511 301.411 229.673 298.628Q231.835 295.845 234.05 293.103Q236.265 290.361 238.532 287.663Q240.798 284.964 243.116 282.308Q245.434 279.653 247.801 277.043Q250.169 274.432 252.586 271.867Q255.003 269.302 257.469 266.783Q259.934 264.265 262.447 261.794Q264.96 259.322 267.52 256.9Q270.08 254.477 272.685 252.103Q275.29 249.729 277.94 247.406Q280.59 245.082 283.284 242.809Q285.978 240.537 288.714 238.316Q291.451 236.095 294.229 233.926Q297.008 231.758 299.827 229.643Q302.646 227.527 305.505 225.466Q308.364 223.405 311.262 221.399Q314.16 219.393 317.095 217.442C336.791 204.378 357.462 193.687 379.018 184.101Z"/>
	<path d="M634.985 178.229Q641.667 180.851 648.244 183.726Q654.821 186.601 661.284 189.724Q667.747 192.848 674.086 196.215Q680.426 199.583 686.632 203.189Q692.838 206.796 698.903 210.636Q704.967 214.476 710.881 218.545Q716.794 222.613 722.549 226.904Q728.303 231.195 733.89 235.702Q737.359 238.454 740.759 241.291Q744.159 244.128 747.488 247.047Q750.818 249.967 754.074 252.967Q757.331 255.968 760.512 259.047Q763.694 262.127 766.799 265.284Q769.904 268.441 772.931 271.673Q775.958 274.905 778.904 278.211Q781.85 281.517 784.714 284.894Q787.578 288.271 790.358 291.718Q793.138 295.164 795.833 298.678Q798.527 302.192 801.135 305.771Q803.742 309.35 806.261 312.992Q808.779 316.634 811.208 320.337Q813.636 324.04 815.972 327.801Q818.309 331.563 820.552 335.38Q822.796 339.198 824.945 343.07Q827.093 346.942 829.146 350.865Q831.199 354.788 833.155 358.761Q835.111 362.734 836.969 366.753Q838.827 370.773 840.585 374.837Q842.343 378.901 844.001 383.007Q845.659 387.113 847.215 391.258Q848.772 395.404 850.226 399.586Q851.68 403.769 853.031 407.986Q854.381 412.203 855.628 416.452Q856.875 420.701 858.017 424.979Q859.159 429.257 860.195 433.563Q861.231 437.868 862.161 442.197Q863.092 446.526 863.915 450.877Q864.739 455.228 865.455 459.598Q866.171 463.967 866.78 468.353Q867.388 472.739 867.889 477.139L852.291 475.125Q850.389 459.52 847.094 444.148Q843.799 428.777 839.137 413.763Q837.925 410.095 836.635 406.454Q835.344 402.813 833.976 399.201Q832.607 395.589 831.161 392.007Q829.715 388.425 828.192 384.875Q826.669 381.325 825.07 377.808Q823.471 374.292 821.796 370.811Q820.122 367.33 818.372 363.886Q816.623 360.442 814.8 357.036Q812.977 353.63 811.081 350.265Q809.186 346.899 807.217 343.575Q805.25 340.251 803.21 336.97Q801.171 333.69 799.062 330.454Q796.952 327.218 794.774 324.028Q792.595 320.838 790.348 317.696Q788.101 314.553 785.787 311.46Q783.473 308.367 781.093 305.325Q778.713 302.283 776.268 299.292Q773.822 296.302 771.313 293.365Q768.804 290.427 766.232 287.545Q763.661 284.663 761.027 281.837Q758.394 279.01 755.701 276.242Q753.007 273.473 750.254 270.763Q747.502 268.052 744.691 265.402Q741.881 262.752 739.014 260.163Q736.147 257.574 733.226 255.047Q730.304 252.521 727.328 250.058Q724.352 247.594 721.324 245.196Q718.296 242.798 715.217 240.465Q712.138 238.132 709.009 235.867Q705.881 233.601 702.704 231.403Q699.527 229.205 696.304 227.077Q693.08 224.948 689.812 222.889Q674.939 213.559 659.253 205.673C653.228 202.682 647.028 200.078 641.039 197.007C639.436 190.58 637.526 184.351 634.985 178.229Z"/>
	<path d="M403.783 706.163C406.268 705.799 409.126 705.917 411.628 706.206C420.624 707.243 428.908 712.152 435.92 717.628C448.159 727.187 459.104 738.78 470.588 749.247C481.027 758.761 492.529 767.694 502.371 777.763C505.869 781.342 505.153 786.135 508.946 789.67C527.139 806.627 546.573 822.735 565.53 838.853C575.609 847.422 593.974 862.422 601.644 872.169C606.715 878.611 610.196 886.044 609.035 894.468C608.176 900.704 605.255 904.914 600.305 908.553C596.004 910.635 591.924 911.839 587.097 910.984C583.958 910.428 580.344 909.031 577.894 906.958C573.731 903.437 570.237 898.765 566.734 894.597L549.602 873.99Q533.859 855.047 518.436 835.843C509.209 824.551 499.823 813.379 491.297 801.541C488.81 802.414 486.025 803.805 483.35 803.111C473.58 800.576 405.197 721.624 397.652 707.334C399.66 706.786 401.733 706.504 403.783 706.163Z"/>
	<path fill="white" d="M501.373 796.721C507.727 798.304 570.363 868.086 580.267 877.399C581.685 877.005 583.022 876.772 584.5 876.745C587.694 876.684 591.067 878.16 593.333 880.392C594.92 881.955 596.186 884.125 596.155 886.411C596.11 889.63 594.915 892.277 592.735 894.56C592.56 894.642 592.386 894.728 592.209 894.808C589.303 896.119 585.766 896.624 582.753 895.336C580.225 894.255 578.463 892.028 577.47 889.521C576.07 885.983 576.24 882.821 577.658 879.34C569.511 871.625 562.097 863.066 554.378 854.92C536.314 835.856 518.315 816.485 499.336 798.326L501.373 796.721Z"/>
	<path fill="white" d="M404.922 710.418C412.88 710.434 420.759 713.371 427.464 717.528C438.808 724.561 449.701 736.812 459.575 745.938C473.151 758.486 487.129 770.604 500.667 783.183C499.218 786.772 497.016 788.645 494.19 791.153C491.244 793.882 488.221 796.42 485.062 798.9C472.988 789.235 462.435 776.962 451.989 765.583C435.688 747.825 419.166 729.894 404.922 710.418Z"/>
	<path d="M437.316 112.962C439.102 112.782 440.097 112.802 441.534 113.949C444.168 118.134 442.906 156.112 442.884 163.811C452.046 160.724 461.042 158.225 470.576 156.554Q470.348 163.708 470.024 170.858C460.669 172.83 451.676 176.076 442.822 179.631C444.021 250.939 443.086 322.39 442.998 393.708C443.753 394.218 444.518 394.718 445.17 395.36C446.414 396.585 446.829 397.912 447.044 399.607C447.827 405.776 447.135 412.587 447.086 418.835L446.956 455.623L495.379 455.397C495.492 446.657 494.176 400.108 496.199 395.989C496.784 394.797 497.6 394.545 498.758 394.117C499.551 393.824 500.376 393.592 501.085 393.112C502.398 392.221 503.054 390.445 503.358 388.951C504.904 381.357 504.556 373.091 504.569 365.363L504.586 338.553C504.584 328.039 505.43 316.648 504.202 306.212Q503.962 304.198 503.364 302.261Q502.767 300.323 501.83 298.525C496.985 289.354 486.16 285.776 480.677 277.004C476.603 270.486 475.651 261.645 475.23 254.126C474.388 239.077 476.245 223.387 477.241 208.339Q478.649 183.646 481.136 159.038C482.244 147.623 483.292 135.577 486.041 124.449C487.856 137.197 488.56 150.116 489.176 162.972C489.6 171.833 490.979 239.988 491.785 241.71C492.246 242.697 493.121 243.391 494.165 243.664C495.456 244.002 497.101 243.995 498.182 243.119C499.603 241.968 499.975 239.704 500.073 237.995C500.498 230.556 500.223 222.895 500.352 215.429Q500.645 185.436 502.458 155.496C503.15 145.026 503.773 134.524 505.574 124.174C506.839 132.83 507.259 141.871 507.82 150.604C509.396 175.151 509.628 199.72 509.774 224.31C509.795 227.822 509.038 238.439 510.352 241.273C510.915 242.487 511.949 243.312 513.243 243.673C514.574 244.044 515.493 243.782 516.668 243.175C517.94 241.789 518.324 240.632 518.461 238.782C519.141 229.548 518.733 219.945 518.969 210.662C519.705 181.772 519.934 152.722 522.835 123.949C526.036 136.016 526.214 150.252 526.681 162.69C527.076 173.224 526.894 238.352 528.668 241.598C529.284 242.724 530.066 243.453 531.319 243.811C532.401 244.121 533.906 244.152 534.892 243.531C536.394 242.584 536.829 240.399 536.966 238.759C537.603 231.096 537.028 222.883 537.147 215.162Q537.489 188.877 538.489 162.608C538.834 150.66 538.676 138.189 540.268 126.334L540.399 125.392Q546.823 169.19 550.388 213.312C551.609 227.755 553.451 242.623 552.742 257.139C552.435 263.429 551.389 270.629 548.88 276.444C544.492 286.61 533.622 290.3 528.061 299.658C525.987 303.148 525.094 307.339 524.629 311.34C523.698 319.358 524.382 328.017 524.395 336.115C524.422 353.571 522.82 376.88 526.808 393.365C528.215 393.817 530.154 394.024 531.282 395.012C532.431 396.017 532.766 397.55 532.938 398.987C533.714 405.49 533.122 412.628 533.078 419.196Q532.945 437.565 533.019 455.935L583.145 457.099C583.27 440.416 583.148 423.703 583.01 407.02C582.972 402.378 582.088 396.924 585.572 393.382C585.869 368.57 585.59 343.728 585.607 318.913L585.804 189.282L585.96 150.199C585.962 142.439 584.907 123.263 586.73 117.105C587.133 115.742 588.024 115.143 589.23 114.491C590.847 114.671 591.796 115.447 592.917 116.608C601.232 125.225 607.686 137.973 612.896 148.806Q615.484 154.146 617.816 159.602Q620.147 165.059 622.218 170.62Q624.288 176.181 626.092 181.833Q627.896 187.486 629.43 193.218Q630.964 198.951 632.224 204.749Q633.484 210.547 634.468 216.399Q635.451 222.251 636.156 228.143Q636.861 234.034 637.286 239.953C638.217 254.472 637.771 269.227 637.744 283.774C637.713 300.362 638.096 317.026 637.586 333.603C630.165 336.294 622.072 338.8 617.397 345.668C615.456 348.52 614.307 351.802 613.653 355.169C612.326 362.004 611.576 386.247 612.906 393.403C613.73 394.042 613.375 393.824 614.152 394.249C614.999 394.712 615.857 395.149 616.574 395.806C618.037 397.146 619.066 399.133 619.318 401.103C620.047 406.8 619.354 413.326 619.34 419.11L619.366 458.136C653.138 460.648 686.911 462.543 720.635 465.812Q746.751 468.129 772.767 471.375Q798.784 474.62 824.669 478.791Q850.553 482.962 876.273 488.052Q901.992 493.142 927.514 499.145L927.52 659.025C927.513 684.852 928.097 710.753 927.54 736.57C912.258 741.788 896.618 746.167 881.161 750.852Q928.968 763.298 977.22 773.885C971.453 760.469 964.261 747.411 957.489 734.465Q948.56 717.124 939.832 699.681C937.93 695.576 936.355 691.365 934.76 687.135C937.961 679.061 943.18 671.337 947.585 663.862C957.878 646.398 969.009 629.321 978.528 611.419C965.187 607.218 951.497 603.86 937.99 600.215C937.491 595.36 937.565 590.526 937.598 585.654Q969.473 593.684 1001.1 602.64C989.206 623.967 976.07 644.748 963.578 665.739C959.067 673.32 954.261 680.77 950.132 688.565C969.289 724.165 987.357 760.354 1006.49 795.977C991.141 792.18 975.618 789.083 960.211 785.538L836.438 757.25L836.446 725.255Q816.044 721.145 795.544 717.562Q775.043 713.979 754.457 710.924Q733.871 707.87 713.213 705.346Q692.555 702.823 671.839 700.831Q651.123 698.841 630.362 697.383Q609.602 695.926 588.811 695.004Q568.02 694.082 547.212 693.695Q526.404 693.308 505.593 693.457C472.289 693.571 438.492 694.106 405.264 696.596C332.858 702.024 261.137 713.107 189.534 724.753L189.432 757.124C173.666 761.073 157.602 764.173 141.732 767.71C100.23 776.96 58.52 785.923 17.2015 795.937C36.726 760.926 54.4546 724.189 72.5119 688.36C61.1832 667.701 48.413 647.648 36.3232 627.404C31.4833 619.299 25.8173 611.199 21.7676 602.686C30.3369 600.085 39.1339 598.054 47.788 595.74L87.0101 585.013L86.9994 600.098Q65.4949 605.69 44.1373 611.819C46.8383 617.387 50.404 622.684 53.5836 628.004Q63.4046 644.573 73.4603 661.002C78.6962 669.548 84.3475 678.08 88.643 687.147C85.6001 694.959 81.5866 702.448 77.9532 710.001C67.6446 731.431 56.4281 752.424 46.0783 773.847C55.6678 772.375 65.4227 769.569 74.8845 767.349L140.485 751.509C126.03 745.836 110.642 741.954 95.9122 736.931Q96.6463 617.034 96.088 497.136C109.488 493.986 123.417 492.248 136.997 489.994C160.032 486.172 182.976 482.241 206.099 478.956C274.863 469.186 344.25 460.6 413.642 456.943C413.964 438.156 412.906 419.281 413.446 400.52C413.531 397.559 414.944 396.119 416.952 394.163L417.486 393.649C419.207 384.871 418.324 374.98 418.315 366.044C418.308 358.471 418.821 350.329 417.891 342.814C417.62 340.618 417.025 338.571 416.128 336.549C412.552 328.492 405.831 321.396 401.016 313.961C379.525 280.772 375.306 242.374 383.5 204.247Q384.05 201.572 384.688 198.917Q385.325 196.261 386.049 193.628Q386.773 190.995 387.583 188.387Q388.393 185.778 389.287 183.198Q390.182 180.618 391.16 178.068Q392.139 175.518 393.2 173.002Q394.261 170.486 395.404 168.006Q396.547 165.525 397.77 163.084Q398.994 160.642 400.296 158.242Q401.599 155.842 402.979 153.485Q404.359 151.129 405.816 148.819Q407.273 146.509 408.804 144.247Q410.335 141.986 411.94 139.776Q413.544 137.566 415.22 135.41Q416.896 133.254 418.641 131.154Q420.387 129.053 422.2 127.011C426.728 121.943 431.578 116.663 437.316 112.962Z"/>
	<path fill="white" d="M426.931 411.554C428.103 411.428 429.342 411.261 430.521 411.36C432.457 411.521 434.361 412.69 435.561 414.184C436.78 415.7 437.267 417.544 436.968 419.468C436.514 422.387 434.879 423.833 432.542 425.413C431.366 425.537 430.157 425.7 428.973 425.67C427.072 425.622 425.065 424.302 423.919 422.847C422.703 421.302 422.28 419.468 422.574 417.534C423.005 414.698 424.692 413.138 426.931 411.554Z"/>
	<path fill="white" d="M512.507 410.948C513.757 410.842 514.919 410.78 516.152 411.069Q516.513 411.157 516.863 411.28Q517.213 411.404 517.549 411.562Q517.885 411.72 518.203 411.911Q518.522 412.103 518.819 412.325Q519.116 412.547 519.39 412.799Q519.663 413.05 519.91 413.327Q520.157 413.605 520.374 413.906Q520.592 414.207 520.778 414.528C521.952 416.549 522.119 419.017 521.375 421.219C520.397 424.114 518.627 425.341 515.948 426.559C515.079 426.511 514.215 426.461 513.357 426.301Q512.97 426.225 512.593 426.112Q512.216 425.998 511.851 425.848Q511.487 425.697 511.14 425.512Q510.792 425.326 510.465 425.106Q510.138 424.887 509.834 424.636Q509.53 424.385 509.252 424.106Q508.975 423.826 508.726 423.52Q508.478 423.214 508.261 422.885Q508.042 422.55 507.859 422.194Q507.677 421.837 507.534 421.464Q507.391 421.09 507.289 420.703Q507.187 420.316 507.126 419.92Q507.066 419.524 507.049 419.125Q507.031 418.725 507.057 418.325Q507.082 417.926 507.15 417.531Q507.218 417.137 507.328 416.752C508.152 413.754 509.934 412.47 512.507 410.948Z"/>
	<path fill="white" d="M599.502 410.993C600.732 410.922 601.94 410.87 603.155 411.126C605.114 411.54 606.828 412.851 607.859 414.554C608.993 416.427 609.249 418.649 608.668 420.75C607.839 423.752 606.155 425.03 603.554 426.538C602.349 426.593 601.099 426.675 599.911 426.421C597.792 425.967 595.827 424.55 594.729 422.682Q594.524 422.339 594.358 421.976Q594.192 421.613 594.065 421.234Q593.939 420.856 593.855 420.465Q593.77 420.075 593.728 419.678Q593.686 419.281 593.687 418.882Q593.688 418.482 593.733 418.085Q593.777 417.689 593.864 417.299Q593.951 416.909 594.079 416.531C595.031 413.635 596.91 412.355 599.502 410.993Z"/>
	<path fill="white" d="M492.106 256.253Q518.735 255.694 545.362 256.335C545.046 265.816 543.728 275.707 535.991 282.233C532.775 284.945 529.098 287.095 526.132 290.106C522.045 294.256 519.617 299.679 518.427 305.323C516.409 314.893 517.362 325.648 517.389 335.388L517.491 378.976C517.591 384.233 518.36 388.943 519.72 394.019L510.308 393.883C512.869 377.586 511.549 359.912 511.535 343.441C511.525 331.323 512.401 318.403 511.228 306.36C509.91 292.838 502.38 288.04 492.77 279.953C485.336 273.698 483.099 265.605 482.212 256.348L492.106 256.253Z"/>
	<path fill="white" d="M593.591 130.897C598.003 135.595 604 148.683 606.968 154.883Q609.28 159.817 611.371 164.848Q613.463 169.88 615.329 174.999Q617.195 180.118 618.833 185.314Q620.471 190.511 621.877 195.775Q623.283 201.04 624.454 206.361Q625.625 211.682 626.56 217.05Q627.494 222.418 628.19 227.822Q628.885 233.226 629.341 238.656C630.382 252.465 630.186 266.296 630.202 280.132L630.233 328.28C624.587 330.409 619.141 332.994 614.756 337.237C605.799 345.903 605.406 357.528 605.349 369.144L605.33 394.495L593.517 394.473L593.491 222.572C593.506 192.029 593.09 161.431 593.591 130.897Z"/>
	<path fill="white" d="M434.282 125.948C434.448 126.214 434.661 126.457 434.78 126.748C435.675 128.924 435.009 199.805 435.002 206.574Q435.49 300.045 434.733 393.515L425.622 393.586L425.805 357.25C425.886 349.913 426.442 341.861 423.972 334.847C421.028 326.488 414.232 319.487 409.215 312.315C394.364 291.082 387.683 265.581 387.58 239.86Q387.576 237.886 387.62 235.913Q387.664 233.94 387.757 231.968Q387.849 229.997 387.99 228.028Q388.13 226.059 388.319 224.095Q388.507 222.13 388.744 220.171Q388.981 218.211 389.265 216.258Q389.549 214.305 389.882 212.359Q390.214 210.414 390.593 208.477Q390.973 206.54 391.4 204.613Q391.826 202.686 392.3 200.77Q392.774 198.854 393.294 196.95Q393.815 195.047 394.382 193.156Q394.948 191.265 395.561 189.389Q396.174 187.513 396.833 185.653Q397.491 183.792 398.195 181.948Q398.899 180.104 399.648 178.278Q400.396 176.452 401.189 174.644Q401.983 172.837 402.82 171.05Q403.657 169.262 404.537 167.496Q405.418 165.73 406.341 163.985Q407.265 162.241 408.23 160.52Q409.196 158.798 410.204 157.101Q411.211 155.404 412.26 153.732Q413.309 152.06 414.398 150.414Q415.487 148.768 416.617 147.15Q417.746 145.531 418.914 143.94Q420.083 142.349 421.29 140.788Q422.497 139.226 423.741 137.695Q424.986 136.163 426.268 134.662Q427.55 133.161 428.868 131.692Q430.186 130.223 431.54 128.787Q432.894 127.351 434.282 125.948Z"/>
	<path fill="white" d="M465.647 470.757Q506.581 469.9 547.518 470.628Q588.454 471.356 629.332 473.668Q670.209 475.98 710.967 479.872Q751.725 483.764 792.301 489.231C832.778 494.81 872.673 501.029 912.45 510.578L912.453 726.458C887.564 721.248 862.963 714.971 837.976 710.154Q803.275 703.184 768.307 697.714Q733.338 692.244 698.167 688.284Q662.995 684.324 627.685 681.883Q592.376 679.441 556.994 678.521C547.716 678.475 538.44 677.985 529.161 677.892Q501.002 677.741 472.857 678.611Q449.996 679.438 427.16 680.801Q404.325 682.165 381.527 684.064Q358.73 685.963 335.984 688.396Q313.237 690.83 290.554 693.796Q267.871 696.763 245.264 700.261Q222.657 703.759 200.138 707.787Q177.619 711.815 155.201 716.37Q132.783 720.925 110.478 726.005L110.563 509.721C121.489 506.834 133.223 505.286 144.364 503.383Q174.814 498.007 205.426 493.646C291.645 481.133 378.446 471.356 465.647 470.757Z"/>
	<path d="M309.366 526.191C310.258 525.996 310.839 526.074 311.73 526.249C311.132 527.71 306.975 529.364 305.471 530.135C304.693 541.121 304.272 636.203 305.723 639.103C306.716 641.09 309.972 641.862 311.908 642.555C303.025 644.906 293.244 645.543 284.12 646.738C282.947 646.928 282.73 647.182 281.644 646.602C282.385 644.545 285.33 642.425 286.816 640.674C288.614 630.914 287.526 614.933 287.526 604.564L287.575 533.418C286.168 532.438 282.963 531.777 282.117 530.55C285.122 528.432 304.59 526.891 309.366 526.191Z"/>
	<path d="M397.262 517.213C400.561 517.046 403.712 517.029 407.006 517.303Q408.877 528.236 411.17 539.088C398.98 529.97 388.528 533.164 374.442 534.657C374.109 554.139 374.41 573.682 374.306 593.174C374.235 606.318 373.362 619.972 374.515 633.044C375.985 633.604 377.241 634.198 378.577 635.03L378.578 635.56C375.495 637.234 353.612 638.786 348.897 639.242C350.576 638.033 352.507 637.059 354.051 635.681C356.11 633.845 356.084 631.669 356.201 629.098L356.205 536.655C346.301 537.896 336.419 539.429 326.539 540.862L324.437 547.589C323.284 539.809 323.486 532.021 323.535 524.179C332.103 523.549 340.699 522.267 349.247 521.352Q373.206 518.715 397.262 517.213Z"/>
	<path d="M466.492 513.675C471.85 512.921 477.814 513.079 483.175 513.81C500.019 516.106 510.433 524.854 520.419 537.987C515.199 540.568 510.549 543.632 505.879 547.104Q504.656 545.107 503.282 543.21C498.166 536.097 491.007 531.876 482.394 530.521C472.418 528.952 461.51 530.709 453.296 536.817C444.557 543.316 439.969 553.306 438.385 563.881C436.448 576.816 438.232 591.397 446.29 602.08C451.459 608.934 458.603 612.905 467.07 614.084C478.622 615.693 488.185 612.867 497.359 605.839C501.183 602.269 504.157 598.935 506.863 594.441Q515.227 599.269 522.8 605.262C512.738 617.984 501.641 628.078 485.193 630.855C470.146 633.396 453.156 631.058 440.606 621.947C428.815 613.388 422.381 599.883 420.245 585.717C417.627 568.345 420.538 548.122 431.303 533.818C440.082 522.152 452.155 515.694 466.492 513.675Z"/>
	<path d="M540.061 511.611C547.326 512.524 554.463 512.566 561.766 512.473C560.959 513.571 560.179 514.67 559.878 516.022C558.683 521.385 559.464 528.057 559.491 533.553L559.545 562.465C578.167 562.843 596.767 564.33 615.381 564.586L615.222 517.883L612.75 513.883C620.427 514.124 628.066 514.559 635.752 514.616C634.676 515.814 633.802 517.13 632.895 518.457L632.667 593.75C632.674 604.12 631.869 616.221 632.681 626.364C632.887 628.929 633.328 630.851 634.45 633.18C634.54 633.368 634.635 633.554 634.728 633.741L633.988 634.635C627.072 633.555 619.977 633.411 612.993 633.158C613.945 631.513 614.839 629.915 615.151 628.015C616.07 622.412 615.578 616.226 615.565 610.543L615.471 581.087C609.857 580.36 603.999 580.412 598.338 580.063Q579.076 578.797 559.792 577.909C559.436 587.842 559.579 597.851 559.502 607.793C559.454 614.027 558.655 621.447 559.835 627.526C560.116 628.969 561.001 630.285 561.768 631.515Q551.089 631.014 540.399 630.897C540.51 630.656 540.626 630.416 540.732 630.172C541.577 628.233 541.849 626.231 541.968 624.134C543.038 605.237 542.09 585.888 542.106 566.939L542.13 536.056C542.131 530.054 542.38 523.905 541.868 517.927C541.674 515.653 540.908 513.703 540.061 511.611Z"/>
	<path d="M656.775 517.19L708.085 522.034C717.096 522.93 726.162 524.392 735.198 524.889C737.133 524.995 739.544 525.187 741.379 524.553C742.273 524.244 741.608 524.175 742.59 524.53C743.876 531.068 742.844 542.109 742.736 549.115Q741.393 547.386 739.977 545.716C738.77 544.318 737.653 543.419 735.888 542.801C729.097 540.42 720.938 540.224 713.789 539.473Q695.553 537.495 677.265 536.08Q677.205 552.071 677.369 568.061L706.152 571.388C710.792 571.93 716.131 573.082 720.766 572.755C722.851 572.608 725.011 571.936 727.021 571.378C728.591 574.857 727.214 588.514 727.082 593.089C725.941 592.008 724.8 590.919 723.313 590.341C714.918 587.073 690.754 585.748 680.622 584.701C679.575 584.539 678.814 584.567 677.77 584.741C676.027 588.835 677.257 616.002 677.337 621.905Q708.733 625.726 740.173 629.156C741.595 628.52 742.978 627.798 744.37 627.099C743.637 633.736 743.7 640.442 743.618 647.11C733.776 642.551 711.951 641.606 700.56 640.396Q677.772 638.101 655.016 635.508C657.267 633.85 658.938 632.644 659.58 629.815C661.139 622.942 660.132 604.053 660.141 595.743L660.047 550.536C660.003 541.594 660.291 532.48 659.58 523.568C659.461 522.085 659.053 521.128 658.279 519.869C657.742 518.994 657.265 518.092 656.775 517.19Z"/>
	<path d="M265.354 532.213C266.181 532.029 266.922 532.125 267.762 532.17C266.998 533.431 261.893 535.591 260.329 536.642Q258.604 537.82 257.066 539.234Q255.529 540.648 254.211 542.269C243.632 555.149 234.569 569.848 225.192 583.626C228.565 589.403 233.024 594.878 236.822 600.423C244.717 611.95 256.662 632.017 266.702 640.915C270.04 643.873 274.145 645.439 278.18 647.206C269.135 650.631 247.591 652.401 236.733 654.415C238.726 652.73 242.542 650.199 243.198 647.6C243.762 645.364 216.48 606.361 212.934 601.37L187.062 637.335C187.002 642.174 185.505 652.532 187.948 656.629C188.861 658.16 189.759 658.222 191.325 658.784C192.504 658.933 192.461 659.055 193.332 659.756L192.913 660.371C182.542 661.887 170.585 665.722 160.461 666.171C161.719 665.448 163.02 664.779 164.304 664.101C165.758 663.332 167.289 662.627 168.192 661.171C169.258 659.452 169.335 657.302 169.419 655.327C169.794 646.513 169.55 637.592 169.568 628.768L169.59 580.597C169.567 573.954 170.455 556.095 169.087 550.634C167.785 549.213 165.294 549.011 163.43 548.481L163.075 547.742C165.538 545.674 191.352 542.459 196.254 542.157C194.182 543.284 191.454 544.456 189.842 546.189C188.701 547.418 188.333 548.832 188.105 550.452C187.195 556.906 187.701 563.856 187.7 570.377Q187.663 589.102 187.912 607.825C198.596 592.801 209.134 577.697 220.144 562.906C225.476 555.742 232.592 548.249 237.137 540.721C238.045 539.216 238.391 537.351 238.762 535.654C247.637 534.627 256.471 533.228 265.354 532.213Z"/>
	<path d="M761.202 529.204C768.101 529.607 775.036 531.12 781.801 532.481C784.575 542.23 802.586 568.592 809.003 578.868L837.096 624.387L837.189 576.75C837.187 568.406 837.895 559.28 836.745 551.032C836.192 547.068 834.872 543.958 833.158 540.394C842.19 542.626 851.391 544.114 860.398 546.426C858.417 548.09 856.776 549.65 855.215 551.745C853.536 559.786 854.588 569.335 854.597 577.594L854.678 627.435C854.699 636.282 853.611 646.266 854.73 654.974C855.201 658.638 857.814 662.024 859.71 665.118C858.759 665.766 857.852 665.412 856.734 665.307C851.072 663.928 845.205 663.022 839.477 661.931C821.103 628.467 801.008 595.841 781.167 563.234C781.416 580.515 781.222 597.825 781.201 615.108C781.191 623.508 780.299 632.743 781.761 641.015C782.474 645.054 784.012 648.192 785.99 651.739C777.366 650.211 768.667 649.001 760.005 647.699C761.758 645.404 763.166 643.319 763.84 640.473C765.482 633.536 764.545 624.593 764.555 617.439L764.57 574.527L764.558 549.301C764.554 544.948 764.815 540.371 764.417 536.042C764.273 534.478 763.568 533.415 762.729 532.122C762.204 531.314 761.705 530.632 761.361 529.724C761.296 529.554 761.255 529.377 761.202 529.204Z"/>
</svg>
